<?xml version="1.0" encoding="UTF-8" standalone="no"?>
<!-- Created with Inkscape (http://www.inkscape.org/) -->

<svg
   xmlns:dc="http://purl.org/dc/elements/1.1/"
   xmlns:cc="http://creativecommons.org/ns#"
   xmlns:rdf="http://www.w3.org/1999/02/22-rdf-syntax-ns#"
   xmlns:svg="http://www.w3.org/2000/svg"
   xmlns="http://www.w3.org/2000/svg"
   xmlns:sodipodi="http://sodipodi.sourceforge.net/DTD/sodipodi-0.dtd"
   xmlns:inkscape="http://www.inkscape.org/namespaces/inkscape"
   version="1.1"
   width="32"
   height="32"
   id="svg4363"
   inkscape:version="0.48.2 r9819"
   sodipodi:docname="circle_r.svg"
   inkscape:export-filename="/Users/reed/Pictures/inkscape/circle_r.png"
   inkscape:export-xdpi="90"
   inkscape:export-ydpi="90">
  <sodipodi:namedview
     pagecolor="#ffffff"
     bordercolor="#666666"
     borderopacity="1"
     objecttolerance="10"
     gridtolerance="10"
     guidetolerance="10"
     inkscape:pageopacity="0"
     inkscape:pageshadow="2"
     inkscape:window-width="785"
     inkscape:window-height="581"
     id="namedview3035"
     showgrid="false"
     inkscape:zoom="12.795556"
     inkscape:cx="22.252171"
     inkscape:cy="16"
     inkscape:window-x="0"
     inkscape:window-y="0"
     inkscape:window-maximized="0"
     inkscape:current-layer="icon" />
  <defs
     id="defs4365" />
  <metadata
     id="metadata4368">
    <rdf:RDF>
      <cc:Work
         rdf:about="">
        <dc:format>image/svg+xml</dc:format>
        <dc:type
           rdf:resource="http://purl.org/dc/dcmitype/StillImage" />
        <dc:title></dc:title>
      </cc:Work>
    </rdf:RDF>
  </metadata>
  <g
     id="layer1">
    <g
       id="g3822"
       transform="translate(-0.06806793,-0.06858534)">
      <g
         id="g3837"
         transform="translate(-1.0833332,0.64874049)">
        <g
           id="icon"
           inkscape:label="#icon1">
          <path
             inkscape:connector-curvature="0"
             id="circle"
             d="m 17.151401,1.2352327 c -7.8313964,0 -14.1983698,6.339457 -14.1983698,14.1708533 0,7.831397 6.3669734,14.198371 14.1983698,14.198371 7.831397,0 14.19837,-6.366974 14.19837,-14.198371 0,-7.8313963 -6.366973,-14.1708533 -14.19837,-14.1708533 z m 0,0.9080353 c 7.334485,0 13.262819,5.9283344 13.262819,13.262818 0,7.334484 -5.928334,13.290336 -13.262819,13.290336 -7.3344838,0 -13.2628183,-5.955852 -13.2628183,-13.290336 0,-7.3344836 5.9283345,-13.262818 13.2628183,-13.262818 z"
             style="font-size:medium;font-style:normal;font-variant:normal;font-weight:normal;font-stretch:normal;text-indent:0;text-align:start;text-decoration:none;line-height:normal;letter-spacing:normal;word-spacing:normal;text-transform:none;direction:ltr;block-progression:tb;writing-mode:lr-tb;text-anchor:start;baseline-shift:baseline;color:#000000;fill:#000000;fill-opacity:1;stroke:none;stroke-width:1.04422426;marker:none;visibility:visible;display:inline;overflow:visible;enable-background:accumulate;font-family:Sans;-inkscape-font-specification:Sans"
             inkscape:label="#circle1" />
          <path
             style="fill:none;stroke:#000000;stroke-width:2.5999999;stroke-miterlimit:4;stroke-opacity:1;stroke-dasharray:none"
             id="letter"
             d="m 15.970325,12.508381 c -0.04161,1.204722 0.126487,2.406486 0.29656,3.596336 0.115646,0.777211 0.295814,1.54305 0.421727,2.318289 0.03672,0.421955 0.0844,0.844217 0.08927,1.268003 0.0067,0.609962 -0.05906,1.216942 -0.07022,1.82677 -0.01396,0.627925 -0.01452,1.255743 -0.01512,1.883736 0.01409,0.470078 0.02787,0.937461 0.0096,1.407432 -0.01306,0.28032 -0.0089,0.560787 0.01211,0.84052 0.02152,0.182208 0.04462,0.360958 0.0254,0.544266 -0.145962,0.574887 -0.204586,0.423778 -1.198645,0.978232 -0.04207,0.02347 -0.03611,-0.09051 -0.04201,-0.138326 -0.0088,-0.07144 -0.0012,-0.143961 -0.0018,-0.215941 -0.0011,-0.706867 0.02342,-1.41333 0.02162,-2.120201 0.03037,-0.874461 0.02649,-1.749213 0.0347,-2.623955 -8.86e-4,-0.604368 -0.02908,-1.210751 0.07698,-1.808177 0.106774,-0.428007 0.23327,-0.851008 0.391518,-1.2628 0.150989,-0.356206 0.308015,-0.70862 0.437398,-1.073416 0.141531,-0.438731 0.263617,-0.883732 0.391127,-1.326819 0.133437,-0.402535 0.317828,-0.78448 0.557617,-1.133756 0.574303,-0.744153 1.387286,-1.253307 2.130421,-1.807369 0.417199,-0.292956 0.522011,-0.370463 -0.516746,0.4021 -0.08066,0.06 0.159319,-0.122642 0.23795,-0.185268 0.233805,-0.186219 0.464741,-0.376038 0.698826,-0.561956 0.742488,-0.540064 1.43815,-1.157681 2.22087,-1.642544 0.319666,-0.162363 0.672018,-0.227409 1.022986,-0.280382 0.336135,-0.04929 0.673915,-0.08578 1.010684,-0.130156 0.268946,-0.03985 0.543807,-0.04836 0.805143,0.03325 0.15251,0.03489 0.270956,0.104342 0.368224,0.225531 0.07617,0.09568 0.148859,0.195759 0.234837,0.282824 l -1.081259,0.84383 0,0 c -0.08557,-0.09198 -0.164228,-0.189722 -0.247688,-0.283539 -0.0824,-0.09072 -0.182336,-0.145726 -0.301215,-0.177753 -0.240607,-0.06746 -0.490824,-0.0596 -0.736294,-0.02112 -0.335147,0.03838 -0.670033,0.08086 -1.003658,0.13063 -0.338498,0.0598 -0.679235,0.129961 -0.978267,0.308665 -0.181087,0.113475 -0.354287,0.234499 -0.527303,0.360002 -0.07042,0.05108 -0.279385,0.207422 -0.211076,0.153539 0.167147,-0.131849 1.191152,-0.919262 0.506388,-0.389189 -0.779847,0.620557 -1.545428,1.262073 -2.366779,1.828186 1.681472,-1.312291 0.114034,-0.148368 -0.15905,0.271049 -0.252733,0.333362 -0.41744,0.715577 -0.580468,1.099134 -0.143328,0.433699 -0.254319,0.873019 -0.36435,1.315983 -0.129126,0.370691 -0.284089,0.730818 -0.45018,1.086427 -0.162836,0.411314 -0.299895,0.832536 -0.422276,1.257433 -0.149246,0.605233 -0.138808,1.229234 -0.179552,1.848337 -0.03783,0.870956 -0.01438,1.742085 -0.02774,2.613539 0.01877,0.67852 -0.01168,1.360974 0.08177,2.035247 0.01423,0.05352 0.02877,0.106975 0.04274,0.16057 0.0022,0.0085 0.829613,0.547047 -0.05583,1.142604 -1.265225,0.838502 -1.019368,-0.103137 -0.982281,-0.463013 0.07323,-0.164711 0.02464,-0.347719 0.01629,-0.52131 -0.01375,-0.296953 0.0016,-0.593347 0.03243,-0.888986 0.03755,-0.475245 0.02776,-0.949887 0.03087,-1.426246 0.008,-0.638672 0.04052,-1.275077 0.06007,-1.913277 -0.0051,-0.589253 0.01872,-1.178608 -0.01093,-1.767467 -0.02136,-0.424582 -0.03363,-0.849357 -0.0586,-1.273717 -0.07923,-0.823147 -0.10566,-1.65087 -0.194698,-2.473335 -0.130096,-1.134898 -0.251682,-2.296212 -0.601945,-3.387767 l 1.119766,-0.76473 z"
             inkscape:connector-curvature="0"
             sodipodi:nodetypes="cccccccccsscccccccccsscccccccccccccccsccccccccccccccccccccccc"
             inkscape:label="#letter1" />
        </g>
      </g>
    </g>
  </g>
</svg>
